<?xml version="1.0" encoding="UTF-8" standalone="no"?>
<!DOCTYPE svg PUBLIC "-//W3C//DTD SVG 1.1//EN"
 "http://www.w3.org/Graphics/SVG/1.1/DTD/svg11.dtd">
<!-- Generated by graphviz version 2.40.1 (20161225.0304)
 -->
<!-- Title: dependencies Pages: 1 -->
<svg width="504pt" height="284pt"
 viewBox="0.00 0.00 504.00 284.00" xmlns="http://www.w3.org/2000/svg" xmlns:xlink="http://www.w3.org/1999/xlink">
<g id="graph0" class="graph" transform="scale(1 1) rotate(0) translate(4 280)">
<title>dependencies</title>
<polygon fill="#ffffff" stroke="transparent" points="-4,4 -4,-280 500,-280 500,4 -4,4"/>
<text text-anchor="start" x="227.0091" y="-42.4" font-family="sans-serif" font-weight="bold" font-size="14.00" fill="#000000">Legend</text>
<polygon fill="#ffffb3" stroke="transparent" points="14,-10 14,-30 34,-30 34,-10 14,-10"/>
<text text-anchor="start" x="37.629" y="-15.4" font-family="sans-serif" font-size="14.00" fill="#000000"> &#160;Declarations</text>
<polygon fill="#8dd3c7" stroke="transparent" points="127,-10 127,-30 147,-30 147,-10 127,-10"/>
<text text-anchor="start" x="150.7251" y="-15.4" font-family="sans-serif" font-size="14.00" fill="#000000"> &#160;Module</text>
<polygon fill="#80b1d3" stroke="transparent" points="213,-10 213,-30 233,-30 233,-10 213,-10"/>
<text text-anchor="start" x="236.7812" y="-15.4" font-family="sans-serif" font-size="14.00" fill="#000000"> &#160;Bootstrap</text>
<polygon fill="#fdb462" stroke="transparent" points="310,-10 310,-30 330,-30 330,-10 310,-10"/>
<text text-anchor="start" x="333.6732" y="-15.4" font-family="sans-serif" font-size="14.00" fill="#000000"> &#160;Providers</text>
<polygon fill="#fb8072" stroke="transparent" points="406,-10 406,-30 426,-30 426,-10 406,-10"/>
<text text-anchor="start" x="429.7258" y="-15.4" font-family="sans-serif" font-size="14.00" fill="#000000"> &#160;Exports</text>
<g id="clust1" class="cluster">
<title>cluster_SharedModule</title>
<polygon fill="none" stroke="#000000" stroke-dasharray="1,5" points="24.5,-70 24.5,-268 471.5,-268 471.5,-70 24.5,-70"/>
</g>
<g id="clust3" class="cluster">
<title>cluster_SharedModule_imports</title>
<polygon fill="none" stroke="#000000" points="32.5,-78 32.5,-130 463.5,-130 463.5,-78 32.5,-78"/>
</g>
<g id="clust4" class="cluster">
<title>cluster_SharedModule_exports</title>
<polygon fill="none" stroke="#000000" points="94.5,-208 94.5,-260 402.5,-260 402.5,-208 94.5,-208"/>
</g>
<!-- CommonModule -->
<g id="node1" class="node">
<title>CommonModule</title>
<polygon fill="#8dd3c7" stroke="#000000" points="455.1681,-122 452.1681,-126 431.1681,-126 428.1681,-122 343.8319,-122 343.8319,-86 455.1681,-86 455.1681,-122"/>
<text text-anchor="middle" x="399.5" y="-99.8" font-family="Times,serif" font-size="14.00" fill="#000000">CommonModule</text>
</g>
<!-- SharedModule -->
<g id="node4" class="node">
<title>SharedModule</title>
<polygon fill="#8dd3c7" stroke="#000000" points="315.9231,-187 312.9231,-191 291.9231,-191 288.9231,-187 217.0769,-187 217.0769,-151 315.9231,-151 315.9231,-187"/>
<text text-anchor="middle" x="266.5" y="-164.8" font-family="Times,serif" font-size="14.00" fill="#000000">SharedModule</text>
</g>
<!-- CommonModule&#45;&gt;SharedModule -->
<g id="edge1" class="edge">
<title>CommonModule&#45;&gt;SharedModule</title>
<path fill="none" stroke="#000000" d="M369.1169,-122.1061C369.1169,-141.3391 369.1169,-169 369.1169,-169 369.1169,-169 326.005,-169 326.005,-169"/>
<polygon fill="#000000" stroke="#000000" points="326.005,-165.5001 316.005,-169 326.005,-172.5001 326.005,-165.5001"/>
</g>
<!-- NgxErrorsModule -->
<g id="node2" class="node">
<title>NgxErrorsModule</title>
<polygon fill="#8dd3c7" stroke="#000000" points="325.636,-122 322.636,-126 301.636,-126 298.636,-122 207.364,-122 207.364,-86 325.636,-86 325.636,-122"/>
<text text-anchor="middle" x="266.5" y="-99.8" font-family="Times,serif" font-size="14.00" fill="#000000">NgxErrorsModule</text>
</g>
<!-- NgxErrorsModule&#45;&gt;SharedModule -->
<g id="edge2" class="edge">
<title>NgxErrorsModule&#45;&gt;SharedModule</title>
<path fill="none" stroke="#000000" d="M266.5,-122.1061C266.5,-122.1061 266.5,-140.991 266.5,-140.991"/>
<polygon fill="#000000" stroke="#000000" points="263.0001,-140.9909 266.5,-150.991 270.0001,-140.991 263.0001,-140.9909"/>
</g>
<!-- LanguageSelectModule -->
<g id="node3" class="node">
<title>LanguageSelectModule</title>
<polygon fill="#8dd3c7" stroke="#000000" points="188.9538,-122 185.9538,-126 164.9538,-126 161.9538,-122 40.0462,-122 40.0462,-86 188.9538,-86 188.9538,-122"/>
<text text-anchor="middle" x="114.5" y="-99.8" font-family="Times,serif" font-size="14.00" fill="#000000">LanguageSelectModule</text>
</g>
<!-- LanguageSelectModule&#45;&gt;SharedModule -->
<g id="edge3" class="edge">
<title>LanguageSelectModule&#45;&gt;SharedModule</title>
<path fill="none" stroke="#000000" d="M145.625,-122.1061C145.625,-141.3391 145.625,-169 145.625,-169 145.625,-169 206.9867,-169 206.9867,-169"/>
<polygon fill="#000000" stroke="#000000" points="206.9868,-172.5001 216.9867,-169 206.9867,-165.5001 206.9868,-172.5001"/>
</g>
<!-- NgxErrorsModule  -->
<g id="node5" class="node">
<title>NgxErrorsModule </title>
<polygon fill="#fb8072" stroke="#000000" points="394.6355,-252 272.3645,-252 272.3645,-216 394.6355,-216 394.6355,-252"/>
<text text-anchor="middle" x="333.5" y="-229.8" font-family="Times,serif" font-size="14.00" fill="#000000">NgxErrorsModule </text>
</g>
<!-- SharedModule&#45;&gt;NgxErrorsModule  -->
<g id="edge4" class="edge">
<title>SharedModule&#45;&gt;NgxErrorsModule </title>
<path fill="none" stroke="#000000" stroke-dasharray="5,2" d="M294.0717,-187.1061C294.0717,-187.1061 294.0717,-205.991 294.0717,-205.991"/>
<polygon fill="#000000" stroke="#000000" points="290.5718,-205.9909 294.0717,-215.991 297.5718,-205.991 290.5718,-205.9909"/>
</g>
<!-- LanguageSelectModule  -->
<g id="node6" class="node">
<title>LanguageSelectModule </title>
<polygon fill="#fb8072" stroke="#000000" points="254.9545,-252 102.0455,-252 102.0455,-216 254.9545,-216 254.9545,-252"/>
<text text-anchor="middle" x="178.5" y="-229.8" font-family="Times,serif" font-size="14.00" fill="#000000">LanguageSelectModule </text>
</g>
<!-- SharedModule&#45;&gt;LanguageSelectModule  -->
<g id="edge5" class="edge">
<title>SharedModule&#45;&gt;LanguageSelectModule </title>
<path fill="none" stroke="#000000" stroke-dasharray="5,2" d="M236.0079,-187.1061C236.0079,-187.1061 236.0079,-205.991 236.0079,-205.991"/>
<polygon fill="#000000" stroke="#000000" points="232.508,-205.9909 236.0079,-215.991 239.508,-205.991 232.508,-205.9909"/>
</g>
</g>
</svg>
