<?xml version="1.0" encoding="UTF-8" standalone="no"?>
<!DOCTYPE svg PUBLIC "-//W3C//DTD SVG 1.1//EN"
 "http://www.w3.org/Graphics/SVG/1.1/DTD/svg11.dtd">
<!-- Generated by graphviz version 2.40.1 (20161225.0304)
 -->
<!-- Title: dependencies Pages: 1 -->
<svg width="966pt" height="284pt"
 viewBox="0.00 0.00 966.00 284.00" xmlns="http://www.w3.org/2000/svg" xmlns:xlink="http://www.w3.org/1999/xlink">
<g id="graph0" class="graph" transform="scale(1 1) rotate(0) translate(4 280)">
<title>dependencies</title>
<polygon fill="#ffffff" stroke="transparent" points="-4,4 -4,-280 962,-280 962,4 -4,4"/>
<text text-anchor="start" x="458.0091" y="-42.4" font-family="sans-serif" font-weight="bold" font-size="14.00" fill="#000000">Legend</text>
<polygon fill="#ffffb3" stroke="transparent" points="245,-10 245,-30 265,-30 265,-10 245,-10"/>
<text text-anchor="start" x="268.629" y="-15.4" font-family="sans-serif" font-size="14.00" fill="#000000"> &#160;Declarations</text>
<polygon fill="#8dd3c7" stroke="transparent" points="358,-10 358,-30 378,-30 378,-10 358,-10"/>
<text text-anchor="start" x="381.7251" y="-15.4" font-family="sans-serif" font-size="14.00" fill="#000000"> &#160;Module</text>
<polygon fill="#80b1d3" stroke="transparent" points="444,-10 444,-30 464,-30 464,-10 444,-10"/>
<text text-anchor="start" x="467.7812" y="-15.4" font-family="sans-serif" font-size="14.00" fill="#000000"> &#160;Bootstrap</text>
<polygon fill="#fdb462" stroke="transparent" points="541,-10 541,-30 561,-30 561,-10 541,-10"/>
<text text-anchor="start" x="564.6732" y="-15.4" font-family="sans-serif" font-size="14.00" fill="#000000"> &#160;Providers</text>
<polygon fill="#fb8072" stroke="transparent" points="637,-10 637,-30 657,-30 657,-10 637,-10"/>
<text text-anchor="start" x="660.7258" y="-15.4" font-family="sans-serif" font-size="14.00" fill="#000000"> &#160;Exports</text>
<g id="clust1" class="cluster">
<title>cluster_AppModule</title>
<polygon fill="none" stroke="#000000" stroke-dasharray="1,5" points="8,-70 8,-268 950,-268 950,-70 8,-70"/>
</g>
<g id="clust2" class="cluster">
<title>cluster_AppModule_declarations</title>
<polygon fill="none" stroke="#000000" points="675,-78 675,-130 942,-130 942,-78 675,-78"/>
</g>
<g id="clust5" class="cluster">
<title>cluster_AppModule_imports</title>
<polygon fill="none" stroke="#000000" points="16,-78 16,-130 667,-130 667,-78 16,-78"/>
</g>
<g id="clust7" class="cluster">
<title>cluster_AppModule_bootstrap</title>
<polygon fill="none" stroke="#000000" points="430,-208 430,-260 554,-260 554,-208 430,-208"/>
</g>
<!-- AppComponent -->
<g id="node1" class="node">
<title>AppComponent</title>
<polygon fill="#ffffb3" stroke="#000000" points="933.9399,-122 828.0601,-122 828.0601,-86 933.9399,-86 933.9399,-122"/>
<text text-anchor="middle" x="881" y="-99.8" font-family="Times,serif" font-size="14.00" fill="#000000">AppComponent</text>
</g>
<!-- AppModule -->
<g id="node3" class="node">
<title>AppModule</title>
<polygon fill="#8dd3c7" stroke="#000000" points="533.6571,-187 530.6571,-191 509.6571,-191 506.6571,-187 450.3429,-187 450.3429,-151 533.6571,-151 533.6571,-187"/>
<text text-anchor="middle" x="492" y="-164.8" font-family="Times,serif" font-size="14.00" fill="#000000">AppModule</text>
</g>
<!-- AppComponent&#45;&gt;AppModule -->
<g id="edge1" class="edge">
<title>AppComponent&#45;&gt;AppModule</title>
<path fill="none" stroke="#000000" d="M881,-122.2921C881,-144.2057 881,-178 881,-178 881,-178 543.9994,-178 543.9994,-178"/>
<polygon fill="#000000" stroke="#000000" points="543.9994,-174.5001 533.9994,-178 543.9994,-181.5001 543.9994,-174.5001"/>
</g>
<!-- routingComponents -->
<g id="node2" class="node">
<title>routingComponents</title>
<polygon fill="#ffffb3" stroke="#000000" points="810.719,-122 683.281,-122 683.281,-86 810.719,-86 810.719,-122"/>
<text text-anchor="middle" x="747" y="-99.8" font-family="Times,serif" font-size="14.00" fill="#000000">routingComponents</text>
</g>
<!-- routingComponents&#45;&gt;AppModule -->
<g id="edge2" class="edge">
<title>routingComponents&#45;&gt;AppModule</title>
<path fill="none" stroke="#000000" d="M747,-122.1061C747,-141.3391 747,-169 747,-169 747,-169 543.8225,-169 543.8225,-169"/>
<polygon fill="#000000" stroke="#000000" points="543.8226,-165.5001 533.8225,-169 543.8225,-172.5001 543.8226,-165.5001"/>
</g>
<!-- AppComponent  -->
<g id="node9" class="node">
<title>AppComponent </title>
<polygon fill="#80b1d3" stroke="#000000" points="546.439,-252 437.561,-252 437.561,-216 546.439,-216 546.439,-252"/>
<text text-anchor="middle" x="492" y="-229.8" font-family="Times,serif" font-size="14.00" fill="#000000">AppComponent </text>
</g>
<!-- AppModule&#45;&gt;AppComponent  -->
<g id="edge8" class="edge">
<title>AppModule&#45;&gt;AppComponent </title>
<path fill="none" stroke="#000000" stroke-dasharray="1,5" d="M492,-187.1061C492,-187.1061 492,-205.991 492,-205.991"/>
<polygon fill="#000000" stroke="#000000" points="488.5001,-205.9909 492,-215.991 495.5001,-205.991 488.5001,-205.9909"/>
</g>
<!-- BrowserModule -->
<g id="node4" class="node">
<title>BrowserModule</title>
<polygon fill="#8dd3c7" stroke="#000000" points="659.4734,-122 656.4734,-126 635.4734,-126 632.4734,-122 552.5266,-122 552.5266,-86 659.4734,-86 659.4734,-122"/>
<text text-anchor="middle" x="606" y="-99.8" font-family="Times,serif" font-size="14.00" fill="#000000">BrowserModule</text>
</g>
<!-- BrowserModule&#45;&gt;AppModule -->
<g id="edge3" class="edge">
<title>BrowserModule&#45;&gt;AppModule</title>
<path fill="none" stroke="#000000" d="M606,-122.027C606,-138.3976 606,-160 606,-160 606,-160 543.8021,-160 543.8021,-160"/>
<polygon fill="#000000" stroke="#000000" points="543.8021,-156.5001 533.8021,-160 543.802,-163.5001 543.8021,-156.5001"/>
</g>
<!-- HttpModule -->
<g id="node5" class="node">
<title>HttpModule</title>
<polygon fill="#8dd3c7" stroke="#000000" points="534.4387,-122 531.4387,-126 510.4387,-126 507.4387,-122 449.5613,-122 449.5613,-86 534.4387,-86 534.4387,-122"/>
<text text-anchor="middle" x="492" y="-99.8" font-family="Times,serif" font-size="14.00" fill="#000000">HttpModule</text>
</g>
<!-- HttpModule&#45;&gt;AppModule -->
<g id="edge4" class="edge">
<title>HttpModule&#45;&gt;AppModule</title>
<path fill="none" stroke="#000000" d="M492,-122.1061C492,-122.1061 492,-140.991 492,-140.991"/>
<polygon fill="#000000" stroke="#000000" points="488.5001,-140.9909 492,-150.991 495.5001,-140.991 488.5001,-140.9909"/>
</g>
<!-- AppRoutingModule -->
<g id="node6" class="node">
<title>AppRoutingModule</title>
<polygon fill="#8dd3c7" stroke="#000000" points="431.2744,-122 428.2744,-126 407.2744,-126 404.2744,-122 302.7256,-122 302.7256,-86 431.2744,-86 431.2744,-122"/>
<text text-anchor="middle" x="367" y="-99.8" font-family="Times,serif" font-size="14.00" fill="#000000">AppRoutingModule</text>
</g>
<!-- AppRoutingModule&#45;&gt;AppModule -->
<g id="edge5" class="edge">
<title>AppRoutingModule&#45;&gt;AppModule</title>
<path fill="none" stroke="#000000" d="M367,-122.027C367,-138.3976 367,-160 367,-160 367,-160 440.0291,-160 440.0291,-160"/>
<polygon fill="#000000" stroke="#000000" points="440.0291,-163.5001 450.0291,-160 440.029,-156.5001 440.0291,-163.5001"/>
</g>
<!-- SharedModule -->
<g id="node7" class="node">
<title>SharedModule</title>
<polygon fill="#8dd3c7" stroke="#000000" points="284.4231,-122 281.4231,-126 260.4231,-126 257.4231,-122 185.5769,-122 185.5769,-86 284.4231,-86 284.4231,-122"/>
<text text-anchor="middle" x="235" y="-99.8" font-family="Times,serif" font-size="14.00" fill="#000000">SharedModule</text>
</g>
<!-- SharedModule&#45;&gt;AppModule -->
<g id="edge6" class="edge">
<title>SharedModule&#45;&gt;AppModule</title>
<path fill="none" stroke="#000000" d="M235,-122.1061C235,-141.3391 235,-169 235,-169 235,-169 440.1365,-169 440.1365,-169"/>
<polygon fill="#000000" stroke="#000000" points="440.1366,-172.5001 450.1365,-169 440.1365,-165.5001 440.1366,-172.5001"/>
</g>
<!-- CoreModule.forRoot() -->
<g id="node8" class="node">
<title>CoreModule.forRoot()</title>
<polygon fill="#8dd3c7" stroke="#000000" points="167.6313,-122 164.6313,-126 143.6313,-126 140.6313,-122 24.3687,-122 24.3687,-86 167.6313,-86 167.6313,-122"/>
<text text-anchor="middle" x="96" y="-99.8" font-family="Times,serif" font-size="14.00" fill="#000000">CoreModule.forRoot()</text>
</g>
<!-- CoreModule.forRoot()&#45;&gt;AppModule -->
<g id="edge7" class="edge">
<title>CoreModule.forRoot()&#45;&gt;AppModule</title>
<path fill="none" stroke="#000000" d="M96,-122.2921C96,-144.2057 96,-178 96,-178 96,-178 439.996,-178 439.996,-178"/>
<polygon fill="#000000" stroke="#000000" points="439.996,-181.5001 449.996,-178 439.9959,-174.5001 439.996,-181.5001"/>
</g>
</g>
</svg>
